# xmcd
#
# Track frame offsets: 
#        150
#        12843
#        30060
#        41792
#        54535
#        65710
#        78840
#        90880
#        100981
#        112435
#        123687
#        135695
#        142362
#        158906
#        171700
#        184645
#        195625
#        207733
#
# Disc length: 2943 seconds
#
# Revision: 0
# Processed by: cddbd v1.5.2PL0 Copyright (c) Steve Scherf et al.
# Submitted via: ExactAudioCopy v0.95a5
#
DISCID=0d0b7d12
DTITLE=Bob Wills and His Texas Playboys - Country's Legendary Guitar Gen
DTITLE=ius
DYEAR=2005
DGENRE=Country
TTITLE0=All Night Long
TTITLE1=Don't Cry Baby
TTITLE2=C Jam Blues
TTITLE3=If He's Moving In, I'm Moving Out
TTITLE4=Let's Get It Over And Done With
TTITLE5=Right Or Wrong
TTITLE6=Cotton Eyed Joe
TTITLE7=Honeysuckle Rose
TTITLE8=Linda Lou
TTITLE9=No Disappointment In Heaven
TTITLE10=Roly Poly
TTITLE11=Beaumont Rag
TTITLE12=Oh Monah
TTITLE13=Ida Red
TTITLE14=Faded Love
TTITLE15=I'm Gonna Be Boss
TTITLE16=Time Changes Everything
TTITLE17=Will's Junction
EXTD=
EXTT0=
EXTT1=
EXTT2=
EXTT3=
EXTT4=
EXTT5=
EXTT6=
EXTT7=
EXTT8=
EXTT9=
EXTT10=
EXTT11=
EXTT12=
EXTT13=
EXTT14=
EXTT15=
EXTT16=
EXTT17=
PLAYORDER=
